Coordinates
version=1
nRows=14
nColumns=63
inDegrees=yes

Units are S.I. units (second, meters, Newtons, ...)
If the header above contains a line with 'inDegrees', this indicates whether rotational values are in degrees (yes) or radians (no).

endheader
time	pelvis_tilt	pelvis_list	pelvis_rotation	pelvis_tx	pelvis_ty	pelvis_tz	hip_flexion_r	hip_adduction_r	hip_rotation_r	knee_angle_r	knee_angle_r_beta	ankle_angle_r	subtalar_angle_r	mtp_angle_r	hip_flexion_l	hip_adduction_l	hip_rotation_l	knee_angle_l	knee_angle_l_beta	ankle_angle_l	subtalar_angle_l	mtp_angle_l	L5_S1_Flex_Ext	L5_S1_Lat_Bending	L5_S1_axial_rotation	L4_L5_Flex_Ext	L4_L5_Lat_Bending	L4_L5_axial_rotation	L3_L4_Flex_Ext	L3_L4_Lat_Bending	L3_L4_axial_rotation	L2_L3_Flex_Ext	L2_L3_Lat_Bending	L2_L3_axial_rotation	L1_L2_Flex_Ext	L1_L2_Lat_Bending	L1_L2_axial_rotation	L1_T12_Flex_Ext	L1_T12_Lat_Bending	L1_T12_axial_rotation	Abs_r3	Abs_r2	Abs_r1	Abs_t1	Abs_t2	neck_flexion	neck_bending	neck_rotation	arm_flex_r	arm_add_r	arm_rot_r	elbow_flex_r	pro_sup_r	wrist_flex_r	wrist_dev_r	arm_flex_l	arm_add_l	arm_rot_l	elbow_flex_l	pro_sup_l	wrist_flex_l	wrist_dev_l
1.816667	-5.098011	-10.503066	107.535309	0.187569	0.361351	0.603691	-11.353927	-3.767997	-27.266971	3.748313	0.065420	14.115077	12.128956	0.000000	-9.730138	5.667107	-2.354845	0.314133	0.005483	20.808006	5.334845	0.000000	-0.313495	-0.484402	2.389406	-0.582192	-0.644254	2.538744	-0.515041	-1.177775	2.538744	-0.358293	-1.177775	2.090730	-0.291111	-0.987792	1.941392	-0.179131	-0.750338	1.792054	-2.239263	-5.479650	13.289159	0.000000	0.000000	27.544125	-22.327661	14.968713	4.944476	-10.554631	121.737498	11.561758	6.656520	-5.140541	-1.539148	70.151209	-31.689689	-24.792602	149.928942	55.182554	12.629773	-7.858922
1.833333	-5.502058	-10.712366	107.339762	0.188232	0.360162	0.601833	-11.439485	-4.193004	-27.216844	3.688122	0.064370	14.686855	12.458788	0.000000	-9.802414	6.056944	-2.261208	0.319288	0.005573	20.714188	5.110472	0.000000	-0.320088	-0.570261	2.474120	-0.594436	-0.758447	2.628753	-0.525873	-1.386532	2.628753	-0.365829	-1.386532	2.164855	-0.297234	-1.162876	2.010223	-0.182899	-0.883334	1.855590	-2.286359	-6.450906	13.760314	0.000000	0.000000	27.651651	-22.239576	14.216551	4.886275	-10.037252	121.791410	11.186514	6.587813	-5.308709	-1.636729	71.583453	-32.156092	-24.994234	149.929337	53.770492	12.314003	-6.324618
1.850000	-5.883057	-10.947911	107.136338	0.188850	0.359002	0.600097	-11.459296	-4.616716	-27.013285	3.652207	0.063743	15.257507	12.620954	0.000000	-9.829892	6.442266	-2.164499	0.325055	0.005673	20.600164	4.848834	0.000000	-0.324225	-0.654489	2.566139	-0.602118	-0.870470	2.726522	-0.532669	-1.591325	2.726522	-0.370556	-1.591325	2.245371	-0.301075	-1.334634	2.084988	-0.185262	-1.013803	1.924604	-2.315905	-7.403710	14.272093	0.000000	0.000000	27.702882	-22.080352	13.434405	4.796644	-9.593081	121.171451	10.925725	6.502036	-5.477106	-1.816583	72.966838	-32.567019	-25.110861	149.929816	52.473223	12.026103	-4.886100
1.866667	-6.259640	-11.212380	106.936516	0.189445	0.357934	0.598426	-11.418595	-5.050711	-26.680532	3.638720	0.063508	15.823916	12.632883	0.000000	-9.813455	6.834293	-2.126172	0.334389	0.005836	20.432594	4.644401	0.000000	-0.326084	-0.737752	2.641828	-0.605571	-0.981211	2.806942	-0.535723	-1.793771	2.806942	-0.372681	-1.793771	2.311600	-0.302802	-1.504425	2.146485	-0.186324	-1.142778	1.981371	-2.329185	-8.345603	14.693056	0.000000	0.000000	27.765027	-21.773819	12.926047	4.746265	-9.201424	120.162322	10.792069	6.394597	-5.859444	-2.129957	74.242511	-33.086415	-25.274532	149.930377	51.152289	11.937406	-3.521011
1.883333	-6.576051	-11.464266	106.766205	0.189865	0.357031	0.596827	-11.346834	-5.432433	-26.268512	3.640409	0.063537	16.349474	12.544019	0.000000	-9.781332	7.171790	-2.098044	0.346776	0.006052	20.235248	4.451092	0.000000	-0.325946	-0.811474	2.709531	-0.605315	-1.079261	2.878877	-0.535497	-1.973018	2.878877	-0.372524	-1.973018	2.370840	-0.302674	-1.654758	2.201494	-0.186246	-1.256973	2.032149	-2.328201	-9.179558	15.069601	0.000000	0.000000	27.817984	-21.397988	12.580453	4.686306	-8.920542	118.709325	10.789587	6.191750	-6.253936	-2.614814	75.345948	-33.545162	-25.357472	149.930900	49.998524	11.987963	-2.327407
1.900000	-6.815516	-11.700289	106.631935	0.190036	0.356331	0.595291	-11.236329	-5.750548	-25.804849	3.666556	0.063993	16.823875	12.378780	0.000000	-9.731908	7.444192	-2.034278	0.360489	0.006292	19.988612	4.175621	0.000000	-0.321518	-0.872984	2.773611	-0.597091	-1.161069	2.946962	-0.528222	-2.122573	2.946962	-0.367463	-2.122573	2.426910	-0.298562	-1.780189	2.253559	-0.183715	-1.352252	2.080208	-2.296571	-9.875370	15.425993	0.000000	0.000000	27.831356	-21.017519	12.290324	4.595657	-8.762320	116.809831	10.916321	5.824450	-6.550379	-3.211282	76.242506	-33.854957	-25.371348	149.931283	49.117151	12.207208	-1.350577
1.916667	-6.987167	-11.893245	106.500775	0.190033	0.355882	0.593776	-11.118037	-5.998035	-25.119707	3.703082	0.064631	17.200137	11.938442	0.000000	-9.694961	7.652587	-1.998337	0.375543	0.006554	19.702764	3.864965	0.000000	-0.318022	-0.921679	2.841495	-0.590599	-1.225833	3.019089	-0.522478	-2.240970	3.019089	-0.363467	-2.240970	2.486309	-0.295315	-1.879487	2.308715	-0.181718	-1.427680	2.131122	-2.271599	-10.426215	15.803546	0.000000	0.000000	27.863704	-20.737740	12.035104	4.456023	-8.713976	114.378614	11.138287	5.602852	-6.763345	-3.926049	76.962322	-34.033867	-25.340939	149.931728	48.194183	12.648838	-0.381614
1.933333	-7.077947	-12.047333	106.392527	0.189816	0.355702	0.592269	-10.988241	-6.162152	-24.286098	3.748804	0.065429	17.456106	11.264818	0.000000	-9.660651	7.783548	-2.013338	0.391699	0.006836	19.390949	3.580666	0.000000	-0.313261	-0.955580	2.908715	-0.581757	-1.270921	3.090509	-0.514657	-2.323396	3.090509	-0.358026	-2.323396	2.545125	-0.290894	-1.948618	2.363331	-0.178997	-1.480193	2.181536	-2.237593	-10.809709	16.177398	0.000000	0.000000	27.901874	-20.534468	11.824905	4.265399	-8.766030	111.494415	11.429307	5.528864	-6.873380	-4.699490	77.514835	-34.096211	-25.344102	149.932137	47.242585	13.341124	0.541789
1.950000	-7.077498	-12.148301	106.299268	0.189402	0.355808	0.590745	-10.866510	-6.230092	-23.365470	3.788945	0.066130	17.569267	10.441659	0.000000	-9.639312	7.822554	-2.181407	0.409836	0.007153	19.088962	3.450370	0.000000	-0.307075	-0.973205	2.975740	-0.570270	-1.294363	3.161723	-0.504494	-2.366250	3.161723	-0.350956	-2.366250	2.603772	-0.285150	-1.984560	2.417788	-0.175463	-1.507494	2.231805	-2.193409	-11.009089	16.550171	0.000000	0.000000	27.940837	-20.420100	11.607057	4.065743	-8.895122	108.667606	11.748996	5.538657	-6.887800	-5.515913	77.915315	-34.064874	-25.327541	149.932634	46.312940	14.094189	1.306223
1.966667	-6.993287	-12.185297	106.213000	0.188777	0.356261	0.589242	-10.755098	-6.217543	-22.449196	3.840156	0.067023	17.547841	9.579295	0.000000	-9.640040	7.779643	-2.333747	0.428002	0.007470	18.729997	3.228224	0.000000	-0.302271	-0.974431	3.050557	-0.561347	-1.295993	3.241217	-0.496600	-2.369231	3.241217	-0.345465	-2.369231	2.669237	-0.280688	-1.987059	2.478578	-0.172717	-1.509393	2.287918	-2.159089	-11.022956	16.966283	0.000000	0.000000	27.980905	-20.433622	11.315740	3.829916	-9.103133	105.776394	12.078922	5.550162	-6.779505	-6.347347	78.177149	-33.864609	-25.320035	149.932947	45.437445	14.941827	1.993980
1.983333	-6.806537	-12.154019	106.136085	0.187941	0.357075	0.587754	-10.659021	-6.098682	-21.463803	3.884787	0.067802	17.346411	8.556099	0.000000	-9.663027	7.630062	-2.690595	0.448100	0.007821	18.360771	3.213287	0.000000	-0.297217	-0.956064	3.126084	-0.551962	-1.271565	3.321464	-0.488298	-2.324575	3.321464	-0.339690	-2.324575	2.735323	-0.275996	-1.949606	2.539943	-0.169830	-1.480943	2.344563	-2.122993	-10.815190	17.386341	0.000000	0.000000	28.023008	-20.506305	11.078522	3.581414	-9.390800	102.974930	12.391818	5.613470	-6.601409	-7.122759	78.271685	-33.572066	-25.336148	149.933152	44.812765	15.780485	2.418460
2.000000	-6.524122	-12.061752	106.062294	0.186929	0.358227	0.586304	-10.570853	-5.883424	-20.429227	3.923348	0.068475	16.993413	7.412646	0.000000	-9.699960	7.381400	-3.241334	0.475462	0.008298	17.970268	3.375871	0.000000	-0.291927	-0.919812	3.201033	-0.542137	-1.223350	3.401097	-0.479607	-2.236430	3.401097	-0.333643	-2.236430	2.800904	-0.271083	-1.875680	2.600839	-0.166807	-1.424788	2.400775	-2.085204	-10.405094	17.803185	0.000000	0.000000	28.061523	-20.601238	10.874165	3.343064	-9.753474	100.332992	12.704487	5.682322	-6.363395	-7.802401	78.249941	-33.212476	-25.335124	149.933254	44.527775	16.502242	2.596048
2.016667	-6.150514	-11.914932	105.997615	0.185767	0.359700	0.584916	-10.486814	-5.573661	-19.378130	3.950138	0.068943	16.516511	6.188776	0.000000	-9.743606	7.034536	-3.951401	0.517069	0.009025	17.552674	3.685690	0.000000	-0.287148	-0.866576	3.272078	-0.533263	-1.152546	3.476583	-0.471756	-2.106993	3.476583	-0.328182	-2.106993	2.863069	-0.266646	-1.767122	2.658564	-0.164077	-1.342326	2.454059	-2.051071	-9.802880	18.198319	0.000000	0.000000	28.093697	-20.688317	10.719071	3.128771	-10.179791	97.911383	13.007784	5.738754	-6.089860	-8.367137	78.143993	-32.831542	-25.298685	149.933152	44.639520	17.050866	2.519638
2.033333	-5.702397	-11.731298	105.956778	0.184502	0.361465	0.583605	-10.400322	-5.181933	-18.345697	3.954318	0.069016	15.948146	4.933666	0.000000	-9.778301	6.602628	-4.735351	0.579518	0.010114	17.092704	4.062853	0.000000	-0.283412	-0.799400	3.332818	-0.526325	-1.063202	3.541119	-0.465618	-1.943661	3.541119	-0.323912	-1.943661	2.916216	-0.263176	-1.630137	2.707915	-0.161942	-1.238271	2.499614	-2.024384	-9.042974	18.536134	0.000000	0.000000	28.122273	-20.731046	10.644281	2.956989	-10.649434	95.714800	13.297716	5.833876	-5.804353	-8.797119	78.003098	-32.505503	-25.248499	149.932676	44.960515	17.510132	2.299350
